PathFileType	4	(X/Y/Z)	/Users/mathieubourgeois/Desktop/Analyse/Traitement/Sujet_06/Data/Transformed_Sujet_06_velo100.trc
DataRate	CameraRate	NumFrames	NumMarkers	Units	OrigDataRate	OrigDataStartFrame	OrigNumFrames
120.000000	120.000000	4	36	mm	120.000000	1631	1864
Frame#	Time	RFHD			RANE			STRN			LANI			LKNE			T10			RHUM			RWRB			C7			LFWT			LTOE			RTOE			LWRA			LBWT			RBWT			RFWT			LKNI			RKNI			RKNE			LANE			RANI			LHEE			RHEE			LHUM			LRAD			RRAD			RWRA			LWRB			LFHD			LBHD			RBHD			RSHO			LSHO			CLAV			LCAR			RCAR			
		X1	Y1	Z1	X2	Y2	Z2	X3	Y3	Z3	X4	Y4	Z4	X5	Y5	Z5	X6	Y6	Z6	X7	Y7	Z7	X8	Y8	Z8	X9	Y9	Z9	X10	Y10	Z10	X11	Y11	Z11	X12	Y12	Z12	X13	Y13	Z13	X14	Y14	Z14	X15	Y15	Z15	X16	Y16	Z16	X17	Y17	Z17	X18	Y18	Z18	X19	Y19	Z19	X20	Y20	Z20	X21	Y21	Z21	X22	Y22	Z22	X23	Y23	Z23	X24	Y24	Z24	X25	Y25	Z25	X26	Y26	Z26	X27	Y27	Z27	X28	Y28	Z28	X29	Y29	Z29	X30	Y30	Z30	X31	Y31	Z31	X32	Y32	Z32	X33	Y33	Z33	X34	Y34	Z34	X35	Y35	Z35	X36	Y36	Z36	

1632	13.59166666666667	268.6230773925781	1361.958129882812	121.0867614746093	-137.5285797119141	569.327392578125	199.251724243164	-17.6076946258545	1195.076416015625	54.83796310424798	46.18635177612305	283.533203125	-53.19521713256837	35.26098632812501	685.0422973632812	-126.2146377563477	-189.4353332519531	1343.30078125	54.57047271728505	187.2748413085937	1119.585327148438	245.3806915283203	389.9456787109375	1025.189086914062	175.9273071289062	49.89419174194335	1455.775634765625	63.43403244018546	-159.2793579101562	1103.205688476562	-63.18677520751962	192.6129455566407	196.6343078613281	-133.0234832763672	-44.42768478393557	406.1072692871094	185.3867645263672	403.2837524414062	1025.520385742188	-131.5704650878906	-319.266845703125	1133.979248046875	-14.92699432373058	-321.2653503417969	1133.622802734375	94.94448852539051	-163.2069549560547	1101.750854492188	150.5196685791015	56.82522201538087	637.9603271484375	-29.76850509643558	142.823989868164	805.063232421875	120.3571472167968	123.5555725097656	847.04345703125	219.4511413574218	12.97553348541261	278.7417297363281	-130.0974884033203	-118.5397644042969	561.5135498046875	122.9619064331054	-36.92261505126952	268.2847595214844	-86.69819641113283	-192.3537750244141	595.5616455078125	156.6036071777343	180.2063293457032	1114.2294921875	-199.9405670166016	216.0874481201172	1159.276611328125	-231.8061981201172	228.6410064697265	1149.800537109375	293.2455444335937	430.5776672363281	1036.0302734375	226.7041015625	427.8890380859375	1027.170776367188	-190.1903839111328	268.3853454589844	1368.045532226562	-22.44284057617193	199.35888671875	1501.5732421875	-15.40676975250251	203.3883514404297	1514.845458984375	112.5663757324218	72.50358581542966	1416.902465820312	197.6179962158202	69.84814453125001	1413.285034179688	-84.1661682128907	65.5908737182617	1319.029907226562	59.5672302246093	479.2695617675781	1048.011474609375	-111.5842056274414	492.7077026367188	1042.677978515625	142.3927154541016	
1633	13.6	269.0376281738281	1362.3671875	121.9387817382812	-129.5590515136719	578.3628540039062	198.9813537597656	-16.93142700195313	1195.546997070312	55.24140548706048	35.80113983154298	275.7728271484375	-53.28632354736329	25.65532112121583	676.8757934570312	-127.7376327514649	-188.75341796875	1343.538208007812	54.07313537597646	187.7968139648437	1120.11376953125	245.3201293945312	390.3995971679688	1025.41015625	175.9699249267578	50.46351242065429	1456.193725585938	64.09488677978507	-158.6572418212891	1103.052490234375	-63.58385848999033	180.0975646972657	184.8349304199219	-133.5472564697265	-30.38258934020998	418.7863464355469	184.9777679443359	403.508056640625	1025.324096679688	-131.6604919433594	-318.35009765625	1134.283813476562	-15.34024238586437	-320.5460510253906	1134.270141601562	94.57596588134754	-162.1051330566407	1102.234130859375	149.9840850830077	47.60493469238282	630.1198120117188	-31.02640151977542	147.9691009521484	816.8500366210938	120.3659057617187	128.2982635498047	858.506103515625	219.3675384521484	1.7969481945038	270.590087890625	-129.8594665527344	-110.4505996704102	570.9520874023438	122.6205062866211	-47.70226287841796	261.2529907226562	-85.98324584960939	-185.00537109375	602.6339721679688	156.2321777343749	180.5694122314453	1114.4970703125	-199.8604125976563	216.5580444335938	1159.524291992188	-231.69677734375	229.2269592285156	1150.217407226562	293.2382507324218	430.9458312988281	1036.219970703125	226.6063232421875	428.1354064941406	1027.025512695312	-190.2785491943359	269.0228576660156	1368.5185546875	-21.54490852355962	200.0772705078125	1502.048583984375	-14.6160211563111	203.8643035888672	1515.307739257812	113.3962402343749	72.82531738281247	1417.307495117188	198.190444946289	70.79792785644533	1413.701049804688	-83.46901702880866	66.32168579101561	1319.571044921875	60.25323104858391	479.5287170410156	1047.93896484375	-111.6312561035156	493.10986328125	1042.258911132812	142.2035980224609	
1634	13.60833333333333	269.5460510253906	1362.78515625	122.7061614990234	-120.8803634643555	585.7393798828125	198.672622680664	-15.81369018554688	1195.795043945312	55.90490341186516	24.97248649597169	268.9873962402344	-53.357723236084	16.46597099304201	669.8927612304688	-128.8745574951172	-187.9971008300781	1343.853149414062	53.62786865234364	188.383316040039	1120.667358398438	245.2869720458984	390.8438110351562	1025.650512695312	176.0103912353516	51.09592819213866	1456.63037109375	64.59830474853507	-158.1554412841797	1103.06103515625	-64.07342529296884	166.6654510498047	174.2388763427734	-134.0818328857422	-15.82612609863284	430.0370178222656	184.8458709716797	403.7290649414062	1025.149780273438	-131.7627410888672	-317.5332641601562	1134.77587890625	-15.63397789001476	-319.8754577636719	1135.012084960938	94.25819396972645	-161.0954742431641	1102.84375	149.5310821533202	39.02885437011719	623.3685913085938	-32.09974288940433	151.9749298095703	830.0872802734375	120.5436248779296	132.5093383789062	869.6029663085938	219.2376403808593	-9.981939315795882	263.83251953125	-129.4978485107422	-100.9431381225586	578.8648071289062	122.9704818725586	-59.18464660644531	255.5538024902344	-85.02906036376956	-177.2136535644532	608.287353515625	156.0082855224609	180.942138671875	1114.744750976562	-199.8228302001953	217.0112609863282	1159.7978515625	-231.6054992675782	229.8116607666015	1150.627075195312	293.2473449707031	431.352783203125	1036.385375976562	226.48095703125	428.3633728027344	1026.8603515625	-190.3665313720703	269.8217163085938	1369.056762695312	-20.76936340332037	200.8563079833984	1502.601928710938	-13.91475677490241	204.3847503662109	1515.762451171875	114.130516052246	73.24224090576169	1417.765258789062	198.7963104248046	71.78455352783205	1414.171752929688	-82.81514739990241	67.04220581054686	1320.108032226562	60.81967926025384	479.7693481445312	1047.89013671875	-111.669677734375	493.6177062988281	1041.345336914062	141.30615234375	
1635	13.61666666666667	270.1898193359375	1363.237915039062	123.3831100463867	-111.7124328613282	591.6137084960938	198.3788909912109	-14.98578834533692	1196.184448242188	56.37641143798821	13.55889606475831	263.4447326660156	-53.37773895263673	7.937688827514664	664.1508178710938	-129.7024230957032	-187.2436218261719	1344.28271484375	53.24141693115224	188.9166107177734	1121.174926757812	245.3052673339843	391.2507629394531	1025.861938476562	176.0106201171875	51.84864044189452	1457.057739257812	65.07308959960929	-157.8684997558594	1103.255859375	-64.40235900878915	152.434799194336	165.0240936279297	-134.5835876464843	-0.8620933890342939	440.0892944335938	185.1156158447265	403.9194946289062	1025.0302734375	-131.8327178955078	-316.8612976074219	1135.407592773438	-15.83830356597911	-319.3112487792969	1135.870239257812	94.08056640624989	-160.219467163086	1103.486450195312	149.1352539062499	31.01532173156739	617.7501220703125	-32.93019866943362	155.2279052734375	843.3826904296875	120.6043624877929	136.2305755615234	880.15869140625	218.7803497314453	-22.43966865539549	258.4360046386719	-129.0164184570313	-92.89776611328126	585.3388061523438	122.9867324829101	-71.27319335937499	251.2325286865234	-84.03907012939456	-169.1813354492188	611.826171875	155.3254394531249	181.2917175292969	1114.990600585938	-199.8008117675782	217.392822265625	1160.014282226562	-231.5845336914063	230.438735961914	1151.02685546875	293.2601623535156	431.6946411132812	1036.552368164062	226.3746643066406	428.5613403320312	1026.668823242188	-190.4313354492188	270.6690673828125	1369.529418945312	-20.09821510314947	201.7016448974609	1503.101196289062	-13.25199890136726	205.0748901367188	1516.208251953125	114.7742919921874	73.78485107421872	1418.240966796875	199.2734374999999	72.74819946289064	1414.611450195312	-82.24293518066413	67.7952423095703	1320.726196289062	61.33367156982415	479.9771423339844	1047.844604492188	-111.6885375976563	493.9999694824219	1041.107788085938	141.1731414794922	
